# xmcd
#
# Track frame offsets: 
#        150
#        14338
#        29338
#        37691
#        49643
#        58072
#        65163
#        73192
#        80789
#        87971
#        95671
#        104668
#        115224
#        126518
#        140450
#        154319
#        162813
#        170732
#        186058
#        203687
#        218475
#        228276
#        246029
#        264005
#        280718
#        291703
#        298918
#        314085
#
# Disc length: 4385 seconds
#
# Revision: 0
# Processed by: cddbd v1.5.2PL0 Copyright (c) Steve Scherf et al.
# Submitted via: ExactAudioCopy v0.95b4
#
DISCID=ac111f1c
DTITLE=Flávio Leandro - Feliz da Vida
DYEAR=2006
DGENRE=Country
TTITLE0=Feliz da Vida
TTITLE1=Patchuli
TTITLE2=Tempo
TTITLE3=Seguro Desemprego
TTITLE4=Não É Pouco Não
TTITLE5=Sem Ela
TTITLE6=De Mala e Cuia
TTITLE7=Paixão Tirana
TTITLE8=Ponto Final
TTITLE9=Pano de Chão
TTITLE10=Frutificando
TTITLE11=Travessuras
TTITLE12=Flor de Março
TTITLE13=Dodói
TTITLE14=Funaré
TTITLE15=Segredo
TTITLE16=Forró Iluminado
TTITLE17=O Poeta Cantador
TTITLE18=Fuxico
TTITLE19=Brasilidade
TTITLE20=Anjo da Guarda
TTITLE21=Nós Dois
TTITLE22=Respeito É Bom
TTITLE23=Pé de Guerra
TTITLE24=Quebranto
TTITLE25=Pra Você Voltar
TTITLE26=Na Casa do Rei
TTITLE27=Fim de Festa
EXTD=
EXTT0=
EXTT1=
EXTT2=
EXTT3=
EXTT4=
EXTT5=
EXTT6=
EXTT7=
EXTT8=
EXTT9=
EXTT10=
EXTT11=
EXTT12=
EXTT13=
EXTT14=
EXTT15=
EXTT16=
EXTT17=
EXTT18=
EXTT19=
EXTT20=
EXTT21=
EXTT22=
EXTT23=
EXTT24=
EXTT25=
EXTT26=
EXTT27=
PLAYORDER=
